<svg width="28" height="41" viewBox="0 0 28 41" fill="none" xmlns="http://www.w3.org/2000/svg">
<path d="M27.5324 14.6523C27.4316 15.7771 27.2116 16.8727 26.7241 17.901C26.6201 17.6654 26.5538 17.4149 26.5275 17.1587C26.5207 17.0158 26.4621 16.8802 26.3625 16.7774C26.263 16.6746 26.1294 16.6117 25.9868 16.6002C25.1813 16.4959 24.3752 16.3909 23.5662 16.3334C23.1142 16.3015 22.7892 16.7933 22.3038 16.7166C22.2605 17.0133 22.1867 17.1509 21.8617 16.9167C21.5367 16.6826 21.5871 16.4392 21.7602 16.1993C22.0831 15.7537 22.6927 15.2683 21.4983 15.2555C21.4772 15.2509 21.4574 15.2416 21.4404 15.2282C21.4235 15.2148 21.4098 15.1976 21.4004 15.1781C21.0392 14.4054 20.336 14.5395 19.6796 14.5068C19.0409 14.4777 18.3625 14.6331 17.8416 14.0676C17.721 13.9363 17.5095 13.9611 17.3612 14.0732C17.213 14.2003 17.0208 14.2637 16.8261 14.2499C16.8169 13.7213 16.9482 13.1429 16.3244 12.8307C16.0725 11.9663 15.453 11.5143 14.6142 11.3092C14.3573 10.9544 14.0635 11.2844 13.8102 11.3043C12.9764 11.3695 12.2192 11.6364 11.8743 12.5206C11.7657 12.798 11.6415 13.0691 11.5245 13.3437C10.8482 13.4005 10.157 13.2125 9.49632 13.5566C9.19827 13.7106 8.93571 13.551 8.93926 13.172C8.9428 12.8129 8.71076 12.6788 8.43329 12.5972C7.85068 12.4269 7.24465 12.3382 6.65921 12.4993C6.24336 12.6135 6.01202 12.4993 5.80765 12.1537C5.53657 11.6889 5.14201 11.4511 4.57643 11.5292C3.8668 11.6264 3.23309 11.4469 2.64552 11.0247C2.36166 10.8203 2.01678 10.7096 1.78402 11.1474C1.71306 11.2837 1.57113 11.2681 1.44127 11.2752C1.78402 9.58197 2.24245 7.93137 3.19974 6.46313C3.37573 6.5781 3.50772 6.75054 3.44102 6.9464C3.20542 7.63971 3.63546 7.61203 4.11233 7.65603C4.9057 7.7348 5.77074 7.60919 6.42431 8.21948C6.80326 8.57429 7.19285 8.57855 7.66688 8.49056C8.14092 8.40256 8.80585 8.38127 9.05989 8.69564C9.51974 9.26335 10.042 9.19238 10.6033 9.19735C10.9298 9.19735 11.2179 9.28322 11.335 9.61107C11.5323 10.1603 11.9389 10.2419 12.459 10.2497C13.3106 10.2561 14.1771 10.122 15.0208 10.3682C15.0726 10.9792 16.1101 11.5604 16.7672 11.2908C17.2448 11.0949 17.5776 11.2681 17.694 11.6598C17.8246 12.1005 18.014 12.0146 18.3476 11.9741C18.9302 11.9032 19.5816 11.7201 20.0798 12.1686C20.7185 12.7441 21.4281 12.8782 22.2392 12.7306C22.7977 12.6284 23.2802 12.6944 23.4406 13.3572C23.4747 13.4991 23.5378 13.6077 23.6897 13.5957C24.0729 13.5666 24.2574 13.8568 24.4873 14.0711C24.6292 14.1996 24.7598 14.4359 24.9578 14.355C25.6469 14.0711 26.1727 14.5075 26.5992 14.8453C27.1059 15.2448 27.2932 15.0696 27.5324 14.6523Z" fill="#F7F7F7"/>
<path d="M15.023 10.3661C14.1792 10.1199 13.3156 10.254 12.4612 10.2476C11.941 10.2433 11.5344 10.1617 11.3371 9.60892C11.22 9.28107 10.9319 9.19734 10.6055 9.19521C10.0442 9.19521 9.52188 9.2612 9.06204 8.6935C8.80799 8.37913 8.14732 8.399 7.66903 8.48841C7.19074 8.57783 6.8054 8.57073 6.42646 8.21733C5.77289 7.60705 4.90785 7.73265 4.11448 7.65388C3.6376 7.60705 3.20757 7.63472 3.44316 6.94425C3.50987 6.74839 3.37788 6.57595 3.20189 6.46099C3.93991 5.18365 4.83405 4.04185 6.07306 3.20874C6.11138 3.38615 6.03049 3.72323 6.4002 3.47911C6.51446 3.40389 6.57123 3.19171 6.75147 3.35705C6.91114 3.50395 6.8785 3.68278 6.73586 3.81122C6.31931 4.1852 6.63155 4.27461 6.94166 4.37893C7.22551 4.47189 7.50156 4.47118 7.80954 4.44989C8.38931 4.4137 9.11881 4.12843 9.53324 4.61594C10.0059 5.17159 10.4621 5.22268 11.0888 5.10275C11.5245 5.01972 12.017 5.1134 12.1397 5.60801C12.293 6.22539 12.7216 6.30629 13.1651 6.1892C13.8173 6.01676 14.3715 6.2261 14.9804 6.37016C15.6403 6.52699 16.1357 7.20043 16.9574 6.90948C17.2796 6.79523 17.2831 7.2054 17.1199 7.39274C16.7857 7.77523 16.5125 8.21662 16.0697 8.50544C15.3316 8.98657 14.8782 9.81968 15.0244 10.3647L15.023 10.3661Z" fill="#F7F7F7"/>
<path d="M27.5323 14.6525C27.2932 15.0697 27.1066 15.245 26.5985 14.8433C26.1727 14.5056 25.6461 14.072 24.9571 14.353C24.7591 14.4339 24.6257 14.1976 24.4866 14.0691C24.2538 13.8562 24.0722 13.5646 23.689 13.5937C23.5371 13.6057 23.4761 13.4979 23.4399 13.3552C23.2795 12.6924 22.7969 12.6264 22.2385 12.7286C21.4295 12.8755 20.7191 12.7421 20.0791 12.1666C19.5823 11.7181 18.9295 11.9033 18.3468 11.9722C18.0133 12.0112 17.8238 12.0985 17.6933 11.6578C17.5769 11.2661 17.2441 11.0901 16.7665 11.2888C16.1094 11.5585 15.0719 10.9773 15.0201 10.3663C15.2592 10.3542 15.592 10.4564 15.4537 9.99229C15.4381 9.94049 15.558 9.79217 15.5708 9.79714C16.0569 9.993 16.2002 9.55161 16.4145 9.31459C16.8786 8.80223 17.5847 8.5787 17.9636 7.97551C18.0218 7.88255 18.0949 7.76901 18.2099 7.80378C18.8485 7.99609 19.5582 7.69734 20.1812 8.13802C20.5523 8.39474 20.9788 8.56009 21.4259 8.62057C22.0405 8.69863 22.5614 9.2493 23.249 8.95552C23.403 8.88952 23.6428 8.90797 23.6904 9.19111C23.7131 9.33304 23.6308 9.61051 23.9309 9.50548C24.1112 9.44161 24.2737 9.25356 24.1751 9.0428C24.0601 8.79514 24.2226 8.69295 24.3432 8.55386C24.5434 8.65463 24.6576 8.82636 24.769 9.01583C25.0465 9.492 25.3296 9.96816 25.6419 10.4223C25.7462 10.5749 25.793 10.9191 26.0677 10.7935C26.2642 10.7019 26.1102 10.4543 26.0598 10.2733C25.9967 10.0491 25.9534 9.81914 25.9009 9.59135C26.2373 9.29472 26.5985 9.10738 27.0519 9.33162C27.6416 11.0653 27.7431 12.8443 27.5323 14.6525Z" fill="#F7F7F7"/>
<path d="M25.7285 19.9504C25.0991 21.0482 24.3433 22.0395 23.3214 22.8073L23.2015 22.9606L23.2143 22.9514C22.9467 22.9557 22.8694 23.3353 22.5486 23.2651C21.9312 23.1302 21.2415 23.3573 20.6887 22.8684C20.5957 22.7868 20.4048 22.8045 20.2544 22.8017C19.3805 22.798 18.517 22.6114 17.7196 22.2538C17.391 22.1041 16.8723 22.0693 16.6835 22.6243C16.6182 22.8144 16.4515 22.8677 16.2861 22.9081C15.5055 23.1139 15.2926 23.4261 15.4055 24.2195H15.15C15.1095 24.123 15.0968 23.9754 15.0258 23.9357C14.4517 23.6341 14.6 23.297 15.0059 23.0188C15.4438 22.7236 15.6574 22.1942 16.1761 21.9835C16.3691 21.9047 16.5558 21.6208 16.301 21.4768C15.7241 21.1511 15.1003 20.6912 14.4936 20.687C13.7293 20.6827 13.0843 20.4968 12.4264 20.2023C13.0552 19.1018 13.8396 18.098 14.7554 17.2218C15.4154 17.1175 15.9732 17.3567 16.4976 17.7278C16.7254 17.8896 16.9283 17.9967 17.1029 17.6135C17.3016 17.1771 17.572 17.1977 17.7593 17.6426C18.002 18.2203 18.5711 18.4999 19.0494 18.5893C19.9113 18.7465 20.7472 19.0226 21.5331 19.4096C21.7695 19.526 22.0072 19.6417 22.2428 19.2812C22.5266 18.8433 23.0234 18.9434 23.1767 19.4444C23.2923 19.8269 23.5237 19.9362 23.8905 19.9489C24.5008 19.978 25.1147 20.0845 25.7285 19.9504Z" fill="#F7F7F7"/>
<path d="M11.3712 40.1644C10.0938 39.5421 9.25151 38.5763 9.0003 37.1499C8.85482 36.3203 9.08191 36.0415 9.94908 36.0372C12.0631 36.0266 14.1771 36.0372 16.2911 36.0372C17.2186 36.0372 18.1468 36.0266 19.0743 36.0372C19.9216 36.05 20.1387 36.326 19.989 37.1726C19.6668 38.9673 18.4384 39.9537 16.8496 40.5441C15.2607 41.1345 13.6448 41.1118 12.0503 40.5043C12.4598 40.3816 12.3554 39.8657 12.6932 39.6698C12.8508 39.5776 12.8564 39.3711 12.7046 39.2256C12.5527 39.0801 12.4307 39.1688 12.266 39.2703C11.8913 39.5031 11.7225 39.9232 11.3712 40.1644ZM14.1125 38.5465C13.9443 38.445 13.7917 38.3762 13.7116 38.2129C13.4632 38.3414 12.9835 38.3797 13.2425 38.8012C13.7194 39.5776 13.7222 38.3031 14.1125 38.5465Z" fill="#F7F7F7"/>
<path d="M24.3447 8.55152C24.224 8.69345 24.0608 8.7928 24.1765 9.04046C24.2751 9.25335 24.1126 9.43927 23.9324 9.50314C23.6322 9.60817 23.7145 9.32786 23.6918 9.18877C23.6443 8.90492 23.408 8.88718 23.2504 8.95317C22.5628 9.24696 22.044 8.69629 21.4274 8.61823C20.9802 8.55775 20.5537 8.3924 20.1827 8.13568C19.5582 7.695 18.8521 7.99375 18.2113 7.80144C18.0963 7.76667 18.0233 7.88021 17.9651 7.97317C17.5861 8.57636 16.88 8.79989 16.4159 9.31225C16.203 9.54927 16.0611 9.99066 15.5722 9.7948C15.5594 9.78983 15.4395 9.93673 15.4551 9.98995C15.5935 10.4541 15.2607 10.3519 15.0215 10.3639C14.8753 9.81893 15.3288 8.98582 16.0668 8.50469C16.5096 8.21587 16.7828 7.77448 17.1171 7.39198C17.2803 7.20464 17.2767 6.79447 16.9545 6.90872C16.1328 7.19967 15.6375 6.52623 14.9775 6.3694C14.3708 6.22747 13.8144 6.01458 13.1623 6.18844C12.7187 6.30553 12.2901 6.22464 12.1368 5.60725C12.0141 5.11051 11.5216 5.01897 11.0859 5.102C10.4593 5.22192 10.003 5.17296 9.53036 4.61519C9.11594 4.12767 8.38643 4.41294 7.80666 4.44913C7.49868 4.46829 7.22405 4.469 6.93878 4.37817C6.62867 4.2774 6.31643 4.18799 6.73299 3.81046C6.87491 3.68202 6.90827 3.50319 6.7486 3.3563C6.56835 3.19095 6.51158 3.40313 6.39733 3.47835C6.02761 3.72247 6.10851 3.38539 6.07019 3.20798C6.21212 2.87375 6.53074 2.74956 6.81176 2.57996L6.98846 2.45932C7.00326 2.41745 7.03078 2.38126 7.06717 2.35581C7.10357 2.33036 7.14701 2.31693 7.19141 2.31739C7.56326 2.31739 7.8386 2.68995 8.3105 2.50119C8.15509 2.82124 8.11039 3.06393 8.16858 3.29172C8.25728 3.6217 8.53404 3.85943 8.82073 3.62596C9.76454 2.84536 10.8183 3.09586 11.853 3.22785C12.7336 3.34069 13.5611 3.62525 14.385 3.9971C15.5452 4.5201 16.8779 4.48603 18.0751 4.96078C18.6939 5.20702 18.8209 5.60371 18.3525 6.10116C18.2503 6.20973 18.1042 6.29773 18.0495 6.42617C17.9466 6.66887 18.0651 7.05562 18.2752 6.94491C18.7677 6.68519 19.3815 6.89737 19.8144 6.43043C20.3111 5.89749 20.7532 5.95781 21.2095 6.51204C21.3273 6.65396 21.3961 6.88672 21.6353 6.86189C22.2158 6.80299 22.7388 6.89808 23.1575 7.34444C23.166 7.35366 23.2554 7.28696 23.3065 7.25502C23.7926 7.57649 24.0672 8.06542 24.3447 8.55152Z" fill="#F7F7F7"/>
<path d="M25.7285 19.9504C25.1146 20.0846 24.5008 19.9781 23.8834 19.9561C23.5166 19.9433 23.2852 19.8341 23.1695 19.4516C23.017 18.9506 22.5195 18.8505 22.2357 19.2883C22.0022 19.6488 21.7645 19.5332 21.526 19.4168C20.7401 19.0297 19.9042 18.7537 19.0423 18.5965C18.564 18.507 17.9949 18.2274 17.7522 17.6498C17.5649 17.2049 17.2945 17.1843 17.0958 17.6207C16.9212 18.0039 16.7183 17.8968 16.4905 17.735C15.9661 17.3638 15.4083 17.1247 14.7483 17.229C15.48 16.2653 16.3762 15.4159 16.8176 14.2485C16.9158 14.2573 17.0148 14.2463 17.1088 14.2164C17.2027 14.1864 17.2897 14.138 17.3647 14.074C17.5131 13.9618 17.7245 13.937 17.8452 14.0683C18.366 14.636 19.0466 14.4785 19.6831 14.5076C20.336 14.5381 21.0428 14.4061 21.404 15.1789C21.4133 15.1984 21.427 15.2155 21.444 15.2289C21.461 15.2423 21.4808 15.2516 21.5019 15.2562C22.6962 15.269 22.0866 15.753 21.7638 16.2C21.5906 16.4399 21.5445 16.6868 21.8652 16.9175C22.186 17.1481 22.2641 17.014 22.3073 16.7173C22.7927 16.794 23.1177 16.3022 23.5698 16.3341C24.3788 16.3916 25.1849 16.4967 25.9903 16.601C26.1329 16.6124 26.2663 16.6753 26.3659 16.7779C26.4654 16.8806 26.5241 17.0159 26.5311 17.1587C26.5573 17.4149 26.6236 17.6654 26.7276 17.901L26.7184 17.8953C26.3721 18.1189 26.3636 18.4893 26.3097 18.8384C26.216 19.2621 25.9648 19.602 25.7285 19.9504Z" fill="#F7F7F7"/>
<path d="M23.3086 7.25521C23.2575 7.28714 23.1667 7.35385 23.1596 7.34462C22.7409 6.89826 22.2179 6.80317 21.6374 6.86207C21.3983 6.88691 21.3295 6.65486 21.2117 6.51222C20.7554 5.958 20.3104 5.89768 19.8165 6.43062C19.3836 6.89755 18.7698 6.68537 18.2773 6.9451C18.0644 7.0558 17.9488 6.66905 18.0517 6.42636C18.1063 6.29791 18.2525 6.21347 18.3547 6.10135C18.823 5.6046 18.696 5.20721 18.0772 4.96096C16.8808 4.48622 15.5481 4.52028 14.3871 3.99728C13.5632 3.62543 12.7358 3.34087 11.8551 3.22804C10.8205 3.09605 9.76669 2.84839 8.82288 3.62614C8.53902 3.86316 8.25943 3.62189 8.17072 3.29191C8.10969 3.06412 8.1544 2.82142 8.31265 2.50138C7.84074 2.69014 7.56541 2.32042 7.19356 2.31758C7.74541 1.86894 8.37219 1.52131 9.04499 1.29074C9.19614 1.29074 9.37213 1.34609 9.42748 1.12469L9.43174 1.1112C9.54244 1.22758 9.6574 1.41351 9.51761 1.50363C9.03435 1.81232 9.30472 2.21965 9.32388 2.59576C9.23162 2.61279 9.12092 2.60853 9.12873 2.75046C9.1314 2.75993 9.13645 2.76856 9.14341 2.77551C9.15037 2.78247 9.15899 2.78753 9.16847 2.7902C9.31039 2.79871 9.30542 2.6873 9.32317 2.59505C9.49348 2.58511 9.70353 2.64898 9.81991 2.5106C10.2578 1.98618 10.9333 1.74349 11.3229 1.14101C11.5968 0.715228 12.0396 0.40228 12.6286 0.644265C12.6542 0.835866 12.3136 0.735098 12.3838 0.949407C12.3966 0.989147 12.5144 1.04237 12.5371 1.02605C13.0502 0.644975 13.5469 1.16088 14.0578 1.04876C14.3197 0.991986 14.6305 1.06224 14.7625 1.28081C15.0769 1.80168 15.6027 1.7151 16.0633 1.81232C16.2492 1.85135 16.4536 1.79671 16.6437 1.82368C17.1873 1.90174 17.7181 1.93154 18.1134 2.46235C18.5441 3.03928 19.3851 3.03999 19.9066 3.53531C20.717 4.30597 21.5601 5.0447 22.3315 5.85297C22.7182 6.25888 23.1887 6.64492 23.3086 7.25521Z" fill="#F7F7F7"/>
<path d="M20.0848 30.4743C19.8109 31.201 19.2999 31.5962 18.5094 31.5998C18.3362 31.4096 18.107 31.4834 17.9005 31.482C16.6743 31.4728 15.448 31.4713 14.2218 31.4699C12.9785 31.4699 11.7357 31.4699 10.4934 31.4699C10.4934 31.4217 10.4934 31.3734 10.4934 31.328H14.0415C13.8329 31.0704 13.5945 30.9547 13.366 30.822C12.4697 30.3012 11.6813 29.6866 11.154 28.7456C10.5863 27.728 10.4636 26.648 10.4898 25.5232C10.5608 25.5601 10.6899 25.5885 10.6977 25.636C10.8141 26.352 11.2974 26.4876 11.9133 26.4273C12.2185 26.4642 12.2419 27.0624 12.689 26.8169C13.2815 26.8956 13.7371 27.3753 14.3822 27.3455C15.2337 27.3065 16.0498 27.4875 16.7736 27.9608C17.0922 28.1737 17.4244 28.2241 17.7976 28.2595C18.2695 28.305 18.8798 28.1808 19.1701 28.6215C19.544 29.1885 20.0755 29.7129 20.0848 30.4743Z" fill="#F7F7F7"/>
<path d="M9.32173 2.59568C9.30257 2.21957 9.0322 1.81508 9.51546 1.50355C9.65739 1.41343 9.5403 1.22751 9.42959 1.11113C11.4045 0.188604 13.4979 -0.130022 15.6467 0.046677C18.6399 0.293629 21.2485 1.46594 23.4434 3.5324C23.5854 3.66439 23.7024 3.81625 23.8309 3.95818C23.8359 4.12352 23.777 4.24771 23.6137 4.31299C23.1042 4.52163 23.117 4.7629 23.4676 5.17307C23.7798 5.53924 24.158 5.84154 24.4007 6.29145C24.9762 7.3559 25.5361 8.42461 25.8988 9.58486C25.9513 9.81265 25.9946 10.0426 26.0577 10.2668C26.1081 10.4478 26.2621 10.6926 26.0655 10.787C25.7937 10.914 25.7469 10.5684 25.6397 10.4158C25.3275 9.96167 25.0444 9.48551 24.7669 9.00935C24.6562 8.81987 24.5419 8.64814 24.3411 8.54737C24.0637 8.06128 23.789 7.57234 23.3051 7.25087C23.1851 6.64059 22.7146 6.25739 22.3251 5.84722C21.5537 5.03895 20.7106 4.30022 19.9002 3.52956C19.3786 3.03281 18.5377 3.03281 18.107 2.45659C17.7117 1.92579 17.1845 1.89598 16.6373 1.81792C16.4472 1.79096 16.2428 1.8456 16.0569 1.80657C15.5963 1.70935 15.0705 1.79592 14.7561 1.27505C14.6241 1.05649 14.3133 0.986232 14.0514 1.043C13.5405 1.15512 13.0438 0.639221 12.5307 1.02029C12.508 1.03662 12.3888 0.983393 12.3774 0.943653C12.3064 0.730763 12.6478 0.830113 12.6222 0.638512C12.0332 0.397946 11.5904 0.713024 11.3165 1.13526C10.9269 1.73773 10.2521 1.98043 9.8135 2.50485C9.69783 2.64677 9.48778 2.57936 9.31676 2.58929L9.32173 2.59568Z" fill="#F7F7F7"/>
<path d="M11.5244 13.3446C11.6415 13.0699 11.7657 12.7989 11.8743 12.5214C12.2192 11.6372 12.9763 11.3704 13.8102 11.3051C14.0635 11.2852 14.3573 10.9503 14.6142 11.3101C13.2212 11.5229 12.7549 12.0743 12.652 13.4794C12.4257 16.5656 10.0739 18.8279 7.04594 18.8293C3.95265 18.8293 1.48029 16.4712 1.37242 13.456C1.37618 13.2861 1.39088 13.1166 1.41642 12.9486L1.43842 12.9727C1.51506 13.2779 1.55834 13.5759 1.77691 13.847C2.60009 14.8717 3.48713 15.8269 4.68641 16.4088C5.65648 16.8814 6.67338 17.1965 7.77402 16.8417C8.87466 16.6713 9.75035 16.1036 10.4813 15.2883C10.8787 14.6659 11.2732 14.0457 11.5244 13.3446Z" fill="#F7F7F7"/>
<path d="M11.5245 13.3444C11.2733 14.0434 10.8787 14.6658 10.4841 15.2881C10.2847 15.2675 10.0541 15.3591 9.95404 15.0596C9.87598 14.829 9.71135 14.9887 9.58219 15.0284C9.29124 14.8716 8.97475 14.504 8.66819 14.7594C8.22467 15.1292 7.8734 14.8865 7.48665 14.7552C7.26524 14.68 7.07435 14.5316 6.82598 14.5096C5.93539 14.4309 5.02209 14.4649 4.22659 13.927C4.08892 13.8341 3.80081 13.8092 3.66669 13.8901C2.81513 14.3968 2.46031 13.6737 2.03453 13.2266C1.84364 13.0265 1.69462 12.9286 1.43986 12.9726L1.41786 12.9485L1.44341 11.2737C1.57114 11.2666 1.71449 11.2822 1.78616 11.146C2.01892 10.7081 2.3638 10.8188 2.64766 11.0232C3.23523 11.4455 3.87106 11.625 4.57857 11.5278C5.14628 11.4497 5.5387 11.6874 5.80978 12.1522C6.01203 12.4978 6.24337 12.6121 6.66134 12.4978C7.24963 12.3368 7.85566 12.4269 8.43543 12.5958C8.71289 12.6774 8.94494 12.8087 8.94139 13.1706C8.94139 13.5495 9.20041 13.7092 9.49846 13.5552C10.157 13.2131 10.8482 13.4012 11.5245 13.3444Z" fill="#F7F7F7"/>
<path d="M20.0847 30.4743C20.0755 29.7128 19.544 29.1884 19.1693 28.6186C18.8791 28.1779 18.2688 28.3021 17.7969 28.2567C17.4236 28.2212 17.0915 28.1673 16.7729 27.9579C16.049 27.4839 15.2301 27.3036 14.3814 27.3427C13.7364 27.3725 13.2808 26.8928 12.6882 26.814C12.6378 26.6621 12.4697 26.3974 12.657 26.3754C13.0579 26.3293 13.1346 25.9078 13.383 25.8198C14.2139 25.526 14.5801 24.7717 15.1507 24.2224H15.4068C15.8078 24.8079 16.3783 24.9491 17.0496 24.8802C17.3427 24.8497 17.5301 25.0427 17.6053 25.3188C17.6366 25.4463 17.7108 25.5592 17.8155 25.6385C17.9201 25.7178 18.0488 25.7588 18.1801 25.7545C19.0316 25.7432 19.8477 26.1129 20.7057 25.9369C20.9107 25.895 20.9633 26.0355 20.9895 26.1973C20.5648 27.3797 20.3101 28.6164 20.233 29.8704C20.2203 30.0762 20.2387 30.2962 20.0847 30.4743Z" fill="#F7F7F7"/>
<path d="M20.9896 26.1974C20.9633 26.0356 20.9108 25.8951 20.7057 25.937C19.8478 26.113 19.0288 25.7432 18.1801 25.7546C18.0489 25.7589 17.9201 25.7179 17.8155 25.6386C17.7109 25.5593 17.6366 25.4464 17.6053 25.3189C17.5301 25.0428 17.3427 24.8498 17.0497 24.8803C16.3784 24.9513 15.8078 24.8094 15.4069 24.2225C15.2933 23.4291 15.5062 23.1169 16.2868 22.9111C16.4522 22.8678 16.6189 22.8146 16.6842 22.6272C16.873 22.0723 17.3938 22.1071 17.7203 22.2568C18.5175 22.6142 19.3807 22.8009 20.2544 22.8046C20.402 22.8046 20.5957 22.7897 20.6887 22.8713C21.2415 23.3603 21.9312 23.1332 22.5486 23.268C22.8694 23.339 22.9467 22.9586 23.2142 22.9544C22.3648 23.9599 21.5686 25.0038 20.9896 26.1974Z" fill="#F7F7F7"/>
<path d="M10.4891 25.5204C10.4628 26.6452 10.5828 27.7252 11.1533 28.7428C11.6806 29.6824 12.4683 30.2962 13.3652 30.8192C13.5937 30.9519 13.8322 31.0676 14.0408 31.3252H10.4926C10.4926 31.3734 10.4926 31.4217 10.4926 31.4671C11.735 31.4671 12.9778 31.4671 14.2211 31.4671C15.4473 31.4671 16.6735 31.4671 17.8998 31.4792C18.1063 31.4792 18.3355 31.4082 18.5087 31.597C15.8568 31.6055 13.2056 31.6325 10.5537 31.6147C9.5325 31.6083 8.8101 30.8405 8.84132 29.8087C8.91186 27.5854 9.34326 25.3884 10.1187 23.3035C10.3592 23.0516 10.6119 22.8259 11.0029 22.9267C10.8808 23.8031 10.4274 24.6106 10.4891 25.5204Z" fill="#F7F7F7"/>
<path d="M14.468 33.6407C12.8714 33.6407 11.2747 33.6407 9.67872 33.6407C9.16778 33.6407 8.66253 33.5981 8.67033 32.9424C8.67814 32.3378 9.15075 32.2647 9.64324 32.2654C12.9014 32.273 16.1593 32.2763 19.417 32.2753C19.8669 32.2753 20.2494 32.3612 20.3395 32.8757C20.4162 33.3284 20.0649 33.6314 19.4553 33.6343C17.7905 33.6449 16.1293 33.6399 14.468 33.6407Z" fill="#F7F7F7"/>
<path d="M11.0022 22.9296C10.6112 22.8289 10.3585 23.0545 10.118 23.3064C10.9468 20.5921 12.3888 18.2319 14.2686 16.1242C14.6539 15.6914 15.0492 15.2677 15.4665 14.8625C16.042 14.3019 16.4486 13.6824 16.3244 12.8315C16.9482 13.1438 16.8169 13.7221 16.8261 14.2508C16.384 15.416 15.4878 16.2655 14.7561 17.2313C13.8403 18.1074 13.0559 19.1113 12.4271 20.2117C11.8232 20.9888 11.4798 21.8964 11.1327 22.8019L11.0022 22.9296Z" fill="#F7F7F7"/>
<path d="M9.06201 34.2396L9.19258 34.2056C9.24722 34.5228 9.49772 34.4525 9.69997 34.4532C12.9018 34.4532 16.1039 34.4532 19.3063 34.4532C19.5085 34.4532 19.759 34.5242 19.8137 34.2063L19.9457 34.2432L20.0457 34.3262C20.4999 34.862 20.4474 35.1217 19.8137 35.4779C19.7548 35.1622 19.5036 35.2367 19.3027 35.2367C16.1032 35.2329 12.9033 35.2329 9.70281 35.2367C9.50198 35.2367 9.25077 35.1657 9.19258 35.4794C8.55391 35.1245 8.49856 34.8634 8.95485 34.3262L9.06201 34.2396Z" fill="#F7F7F7"/>
<path d="M25.8988 9.58909C25.5362 8.42883 24.9763 7.36225 24.4008 6.29568C24.1581 5.84577 23.7798 5.54347 23.4676 5.17729C23.1128 4.76713 23.1043 4.52585 23.6138 4.31722C23.777 4.25051 23.8359 4.12633 23.8309 3.9624C25.3921 5.45902 26.4502 7.25723 27.0498 9.33078C26.5964 9.10511 26.2352 9.29104 25.8988 9.58909Z" fill="#F7F7F7"/>
<path d="M19.8122 34.2056C19.7576 34.5228 19.5071 34.4526 19.3049 34.4526C16.1025 34.4554 12.9004 34.4554 9.69855 34.4526C9.4963 34.4526 9.2458 34.5235 9.19116 34.2049C12.7318 34.1538 16.2721 34.154 19.8122 34.2056Z" fill="#F7F7F7"/>
<path d="M9.19116 35.4764C9.24935 35.1606 9.50056 35.2337 9.70139 35.2337C12.9014 35.2299 16.1013 35.2299 19.3013 35.2337C19.5021 35.2337 19.7533 35.1592 19.8122 35.475C17.838 35.4878 15.8638 35.5084 13.8896 35.5098C12.3263 35.5126 10.7573 35.4906 9.19116 35.4764Z" fill="#F7F7F7"/>
<path d="M11.3712 40.1644C11.7224 39.9232 11.8913 39.5031 12.266 39.2724C12.4307 39.1709 12.5499 39.0766 12.7046 39.2277C12.8593 39.3789 12.8508 39.5825 12.6932 39.6719C12.3554 39.8692 12.4597 40.3816 12.0503 40.5065C11.8111 40.4192 11.5621 40.3504 11.3712 40.1644Z" fill="#F7F7F7"/>
<path d="M26.3061 18.8384C26.3622 18.4892 26.3686 18.1188 26.7149 17.8953C26.6689 18.2415 26.5273 18.5681 26.3061 18.8384Z" fill="#F7F7F7"/>
<path d="M9.42535 1.12457C9.37 1.34598 9.19401 1.29063 9.04286 1.29063C9.09113 1.23733 9.15022 1.19494 9.21618 1.1663C9.28214 1.13767 9.35345 1.12344 9.42535 1.12457Z" fill="#F7F7F7"/>
<path d="M11.1327 22.7974C11.4797 21.8919 11.8232 20.9843 12.4271 20.2073C13.0849 20.5018 13.73 20.6877 14.4943 20.692C15.101 20.6962 15.7248 21.1561 16.3017 21.4818C16.5565 21.6237 16.3727 21.9076 16.1768 21.9885C15.6581 22.2013 15.4445 22.7286 15.0066 23.0238C14.5972 23.2999 14.4524 23.6391 15.0265 23.9407C15.0974 23.9783 15.1102 24.1259 15.1507 24.2245C14.583 24.7738 14.214 25.5281 13.383 25.8219C13.1346 25.9099 13.058 26.3314 12.657 26.3775C12.4697 26.3995 12.6379 26.6614 12.6882 26.8161C12.2412 27.0616 12.2178 26.4613 11.9126 26.4265C11.8416 26.0291 12.068 25.7765 12.3384 25.5501C12.8351 25.1378 13.3709 24.7986 13.7342 24.2089C14.1189 23.5851 14.1196 23.2211 13.3865 23.1288C12.6343 23.0316 11.9183 22.6569 11.1327 22.7974Z" fill="#F7F7F7"/>
<path d="M14.1125 38.5464C13.7222 38.303 13.7193 39.5775 13.2425 38.8012C12.9834 38.3797 13.4631 38.3413 13.7115 38.2129C13.7917 38.3761 13.9443 38.4449 14.1125 38.5464Z" fill="#F7F7F7"/>
<path d="M9.32105 2.59497C9.30331 2.68722 9.30828 2.79864 9.16635 2.79012C9.15688 2.78745 9.14825 2.7824 9.14129 2.77544C9.13433 2.76848 9.12928 2.75985 9.12661 2.75038C9.11881 2.60845 9.22951 2.61271 9.32176 2.59568L9.32105 2.59497Z" fill="#F7F7F7"/>
<path d="M11.1327 22.7975C11.9183 22.6556 12.6343 23.0317 13.3894 23.1268C14.1224 23.219 14.1217 23.5831 13.7371 24.2068C13.3738 24.7965 12.838 25.1357 12.3412 25.548C12.068 25.7744 11.8402 26.027 11.9155 26.4244C11.2995 26.4848 10.8162 26.3492 10.6999 25.6332C10.6921 25.5857 10.5643 25.5573 10.4919 25.5204C10.4302 24.6106 10.8837 23.8031 11.005 22.9295L11.1327 22.7975Z" fill="#F7F7F7"/>
<path d="M1.43698 12.9725C1.69174 12.9285 1.84076 13.0265 2.03165 13.2266C2.45743 13.6737 2.81225 14.3968 3.66381 13.8901C3.80006 13.8092 4.08604 13.834 4.22371 13.927C5.01921 14.4649 5.93251 14.4308 6.8231 14.5096C7.07147 14.5316 7.26236 14.6799 7.48377 14.7551C7.87052 14.8864 8.22179 15.1291 8.66531 14.7594C8.97187 14.5039 9.28837 14.8715 9.57932 15.0283C9.55055 15.1076 9.49725 15.1755 9.42718 15.2224C9.35711 15.2692 9.27393 15.2925 9.18972 15.2888C9.05844 15.3292 8.75046 15.1937 8.93142 15.5471C8.92503 15.7912 8.76536 15.9289 8.58015 16.0438C8.25562 16.2485 7.97839 16.5199 7.76691 16.84C6.6684 17.1949 5.64936 16.8798 4.6793 16.4072C3.48285 15.8253 2.59581 14.8701 1.7698 13.8454C1.55691 13.5757 1.51362 13.2777 1.43698 12.9725Z" fill="#F7F7F7"/>
<path d="M9.19262 15.2889C9.27682 15.2926 9.36001 15.2693 9.43008 15.2225C9.50015 15.1757 9.55344 15.1077 9.58221 15.0285C9.71136 14.9909 9.876 14.8291 9.95406 15.0597C10.0541 15.3563 10.2847 15.2676 10.4842 15.2882C9.75039 16.1036 8.8747 16.6713 7.76981 16.8416C7.98129 16.5215 8.25852 16.25 8.58305 16.0454C8.76826 15.929 8.92793 15.7913 8.93431 15.5486C9.1025 15.5429 9.18765 15.4564 9.19262 15.2889Z" fill="#F7F7F7"/>
<path d="M9.19258 15.2888C9.18761 15.4563 9.10245 15.5429 8.93427 15.5471C8.75331 15.1937 9.062 15.3293 9.19258 15.2888Z" fill="#F7F7F7"/>
</svg>
