<svg width="157" height="32" viewBox="0 0 157 32" fill="none" xmlns="http://www.w3.org/2000/svg">
<path d="M26.4949 31.7256L23.1256 28.3705C21.9388 29.3301 20.6002 30.085 19.1649 30.604C17.6801 31.1425 16.1116 31.4133 14.5322 31.4038C12.5886 31.4166 10.6649 31.0116 8.89156 30.216C7.14806 29.4397 5.57282 28.3306 4.25413 26.9509C2.90893 25.5416 1.84706 23.8869 1.12623 22.0769C-0.3754 18.265 -0.3754 14.0254 1.12623 10.2135C1.85049 8.40529 2.91196 6.75124 4.25413 5.33952C5.56633 3.9424 7.14042 2.81691 8.88683 2.02706C10.6634 1.24396 12.5836 0.839508 14.5251 0.839508C16.4666 0.839508 18.3868 1.24396 20.1634 2.02706C21.9034 2.82083 23.4721 3.94594 24.7819 5.33952C26.7067 7.4053 28.0448 9.94767 28.658 12.7038C29.2711 15.46 29.1369 18.3299 28.2694 21.0169C27.7705 22.5181 27.0581 23.9397 26.1542 25.2379L29.5849 28.6497L26.4949 31.7256ZM14.5322 27.0313C15.5109 27.0348 16.4833 26.8749 17.4093 26.5581C18.3249 26.2465 19.1821 25.7843 19.9457 25.1906L16.6806 21.9491L19.7753 18.8307L22.8938 21.968C23.4822 21.1264 23.9297 20.1946 24.2188 19.2092C24.514 18.2122 24.6638 17.1779 24.6636 16.1381C24.6879 13.2855 23.6214 10.5314 21.6824 8.43902C20.77 7.44675 19.6719 6.64292 18.4504 6.07298C17.2187 5.50569 15.8788 5.21194 14.5227 5.21194C13.1667 5.21194 11.8268 5.50569 10.5951 6.07298C9.37587 6.64687 8.27856 7.45017 7.3631 8.43902C5.4306 10.5279 4.36481 13.2735 4.38189 16.1192C4.37327 17.5668 4.64151 19.0027 5.17215 20.3496C5.67856 21.6394 6.42525 22.8213 7.37256 23.8324C8.28726 24.8263 9.3887 25.6302 10.614 26.1985C11.8437 26.7586 13.181 27.0429 14.5322 27.0313Z" fill="#40337A"/>
<path d="M45.0683 31.5126C42.8913 31.5638 40.7488 30.9623 38.9166 29.7854C37.1672 28.6336 35.7625 27.0294 34.8517 25.1432C33.8741 23.1268 33.38 20.9104 33.4084 18.6697V1.48755H37.7903V18.6697C37.7703 20.1336 38.0606 21.5851 38.6421 22.9286C39.1682 24.1649 40.0285 25.2301 41.1265 26.0044C42.3161 26.7558 43.6943 27.1546 45.1014 27.1546C46.5085 27.1546 47.8867 26.7558 49.0763 26.0044C50.1659 25.2296 51.0154 24.1636 51.5276 22.9286C52.0984 21.5824 52.3821 20.1318 52.3604 18.6697V1.48755H56.7423V18.6697C56.7558 20.3718 56.4773 22.0636 55.9189 23.6715C55.3981 25.1741 54.595 26.5634 53.5529 27.7647C52.5362 28.9381 51.279 29.879 49.8666 30.5236C48.3589 31.2006 46.7208 31.5382 45.0683 31.5126Z" fill="#40337A"/>
<path d="M61.9855 30.9684V1.48755H66.3674V30.9684H61.9855Z" fill="#40337A"/>
<path d="M70.7966 30.9684V26.5865L88.7406 5.86472H70.7966V1.48755H94.6368V5.86472L76.6927 26.5865H94.6368V30.9684H70.7966Z" fill="#40337A"/>
<path d="M96.7426 12.4802L98.0486 1.48755H102.426L99.6481 12.4802H96.7426Z" fill="#40337A"/>
<path d="M126.432 30.9684H120.753L111.97 18.8165L110.182 20.9838V30.9684H105.8V1.48759H110.182V14.1743L120.796 1.47812H126.522L114.852 15.4046L126.432 30.9684Z" fill="#40337A"/>
<path d="M141.101 32C141.084 29.8346 141.664 27.7063 142.776 25.8483C143.887 23.9802 145.483 22.448 147.395 21.4143C148.782 20.701 149.924 19.5885 150.674 18.2202C151.467 16.7974 151.875 15.1925 151.857 13.5638C151.878 11.9943 151.464 10.4496 150.66 9.10151C149.874 7.78479 148.767 6.68901 147.442 5.9168C146.088 5.1415 144.554 4.73364 142.994 4.73364C141.433 4.73364 139.9 5.1415 138.546 5.9168C137.223 6.6857 136.122 7.78259 135.347 9.10151C134.551 10.4525 134.142 11.9961 134.164 13.5638H129.432C129.405 11.1621 130.037 8.79898 131.258 6.73073C132.454 4.70231 134.148 3.01313 136.18 1.82357C138.26 0.628765 140.616 0 143.015 0C145.414 0 147.771 0.628765 149.851 1.82357C151.884 3.01178 153.578 4.70127 154.772 6.73073C155.995 8.79813 156.627 11.1618 156.599 13.5638C156.616 16.0382 155.972 18.4723 154.734 20.6146C153.537 22.7265 151.767 24.4571 149.628 25.607C148.478 26.2145 147.518 27.1263 146.851 28.2427C146.173 29.3778 145.823 30.6782 145.838 32H141.101Z" fill="#40337A"/>
<path d="M132.82 23.0705C132.465 23.072 132.114 23.0004 131.789 22.8604C131.463 22.7204 131.17 22.5149 130.927 22.2566C130.549 21.8686 130.288 21.3811 130.176 20.8508C130.064 20.3206 130.104 19.7693 130.293 19.2612C130.607 18.619 131.148 18.1155 131.811 17.8473C132.474 17.5792 133.212 17.5654 133.885 17.8085C134.992 18.4142 135.546 19.2533 135.546 20.3259C135.55 20.6847 135.482 21.0408 135.346 21.3726C135.209 21.7044 135.007 22.0051 134.751 22.2566C134.503 22.5191 134.204 22.7271 133.871 22.8673C133.539 23.0074 133.181 23.0766 132.82 23.0705Z" fill="#331E36"/>
</svg>
