<svg width="170" height="140" viewBox="0 0 170 140" fill="none" xmlns="http://www.w3.org/2000/svg">
<path d="M155.085 74.607C155.002 74.4198 154.843 74.3089 154.655 74.2812C154.226 74.198 151.619 73.8237 148.042 73.283C141.589 72.3403 131.856 70.8914 126.748 70.1081C121.694 69.1099 115.559 68.0078 111.906 67.3354C110.215 67.0096 108.974 66.7947 108.489 66.7184C108.357 66.6907 108.219 66.7184 108.087 66.8016C108.004 66.7739 107.9 66.7739 107.816 66.7739C106.929 66.7184 105.931 67.0997 104.884 67.876C102.521 64.2992 98.0287 58.3308 93.0031 56.182L92.4416 55.9394C85.5027 52.9794 73.9187 48.0648 71.4929 39.8574C71.2225 38.9978 71.0908 38.0828 71.0631 37.1955C70.9522 33.8613 71.3612 31.1995 71.7078 29.0783C72.297 25.3698 72.6782 22.895 69.0182 21.6542C68.3736 21.4394 67.5903 21.2522 66.599 21.0928C64.1243 20.6907 61.816 21.4185 59.7433 23.2139C55.4178 27.0333 53.2897 34.8039 53.4491 38.9701C53.5323 41.2021 54.9256 43.864 56.5407 46.9556C58.2321 50.179 60.0345 53.6518 60.7069 57.2288C57.3171 57.9566 54.4405 58.8716 52.1599 59.946C51.4875 60.1886 40.9994 64.1398 37.1314 66.9126C34.9271 68.5 34.0398 71.7788 34.6568 75.9448C35.2183 79.6256 37.0484 83.771 39.5784 85.1918C38.4207 86.294 37.0759 88.124 37.374 90.5709C37.7206 93.4753 38.9614 96.0055 40.6529 97.3226C41.1381 97.6969 41.6719 97.995 42.2403 98.1822C41.353 99.4715 40.9787 100.899 41.1658 102.348C41.6233 105.897 43.4534 109.502 46.5172 110.175C45.7408 111.492 45.3596 113.398 46.8153 115.983C48.7215 119.373 51.6259 121.064 55.6881 121.064C56.416 121.064 57.1646 121.009 57.9757 120.905C60.4226 120.579 65.587 117.245 68.5677 114.209C76.3384 115.741 85.4261 117.002 93.2803 117.917C94.0082 120.69 94.7568 122.167 94.7846 122.222C94.8955 122.409 95.0826 122.52 95.2698 122.52H95.3807H95.4362C95.4916 122.548 95.5193 122.576 95.5679 122.576L112.697 127.171L144.236 134.81C144.326 134.755 144.381 134.755 144.409 134.755C144.596 134.755 144.756 134.672 144.867 134.512C144.922 134.429 151.133 125.265 155.514 113.516C158.093 106.577 159.548 100.123 159.819 94.2936C160.165 86.9804 158.689 80.6585 155.438 75.4743C155.327 75.1762 155.196 74.9051 155.085 74.607ZM38.4767 90.3909C38.2064 88.2142 39.5234 86.5992 40.7643 85.5802C40.8752 85.5802 41.0347 85.6079 41.1941 85.6079C41.8942 85.6079 43.0796 85.4762 45.1175 85.0464C50.7393 83.8334 59.9032 80.9358 62.0868 79.8336C63.7019 79.9446 65.0468 81.1507 65.7191 83.1402C66.5787 85.6427 66.2321 89.1918 63.8613 91.1257C62.2739 92.4151 46.386 97.0386 44.4511 97.2813C43.2935 97.4131 42.2468 97.1497 41.3318 96.4218C39.8692 95.2572 38.7956 92.9972 38.4767 90.3909ZM42.2892 102.168C42.1298 100.823 42.5318 99.5616 43.4468 98.4041C43.5785 98.4041 43.7449 98.4318 43.8766 98.4318C44.1192 98.4318 44.3341 98.4041 44.5767 98.3764C46.4622 98.1337 62.6968 93.5102 64.5548 91.9782C64.6103 91.9227 64.6657 91.895 64.7142 91.8465C66.3016 91.9019 67.6463 93.1358 68.3466 95.153C69.2339 97.6832 68.9081 101.232 66.6552 103.166C65.151 104.428 49.9285 108.864 48.0773 109.107C47.9179 109.135 47.7307 109.135 47.5643 109.135C44.549 109.107 42.7259 105.579 42.2892 102.168ZM57.8305 119.727C52.992 120.371 49.8173 118.971 47.8001 115.373C46.6702 113.356 46.698 111.609 47.8279 110.209C47.9596 110.209 48.0982 110.181 48.2299 110.181C50.0322 109.966 65.629 105.502 67.4041 103.998C67.6744 103.783 67.8893 103.541 68.1042 103.27C69.7956 104.504 70.5512 108.081 69.5807 110.881C69.3658 111.498 68.7766 112.282 67.9933 113.113L67.9378 113.169C65.2275 115.99 60.0141 119.456 57.8305 119.727ZM70.6615 111.228C71.8191 107.921 70.9041 103.915 68.776 102.383C70.204 100.047 70.204 97.0038 69.4207 94.7716C68.6928 92.6712 67.3203 91.2778 65.6567 90.8482C67.5145 88.4566 67.5906 85.1224 66.7866 82.7517C66.0864 80.7622 64.8248 79.3898 63.2374 78.8768C64.3951 77.428 64.4713 75.0295 63.9376 73.1233C63.1335 70.1912 61.0885 68.3403 58.7732 68.3887C55.8965 68.4719 46.1087 71.6953 45.7065 71.8546C45.4085 71.9655 45.249 72.2567 45.36 72.5548C45.4709 72.8528 45.762 73.0123 46.0601 72.9013C46.171 72.8736 56.1183 69.5948 58.8078 69.5116H58.9188C61.0399 69.5116 62.357 71.6119 62.87 73.4073C63.4315 75.4244 63.2166 77.8714 61.7124 78.7033C60.125 79.5906 50.8778 82.599 44.9094 83.8953C41.79 84.5677 40.9028 84.4568 40.6879 84.3806C38.5667 83.6804 36.4108 79.8609 35.7663 75.6949C35.2048 72.0141 35.9534 69.0542 37.7834 67.7371C41.5475 65.0199 52.4651 60.9369 52.5691 60.9091H52.5968H52.6246C54.8013 59.8901 57.6017 59.0028 60.8804 58.2749C61.0953 60.2644 60.9358 62.2538 60.1525 64.2433C60.0416 64.5414 60.1803 64.8603 60.4783 64.9712C60.7764 65.0821 61.0953 64.9434 61.2062 64.6454C62.1489 62.2817 62.2529 59.9108 61.9063 57.6025V57.4916V57.4638C61.2894 53.4849 59.2998 49.6932 57.5531 46.3866C55.9934 43.4267 54.6764 40.8757 54.5931 38.8863C54.4614 34.9629 56.4509 27.5942 60.506 24.0174C62.3082 22.43 64.2977 21.813 66.4467 22.1596C67.0082 22.2427 69.4864 22.9584 69.9162 23.0693C72.578 24.8439 71.4446 27.7446 70.5574 33.9556C70.5574 35.7302 69.9162 36.3786 70.5574 40.4737C73.3024 48.9723 84.9965 53.9423 92.0385 56.93L92.6 57.1726C97.383 59.2174 101.847 65.2135 104.107 68.6519C104.079 68.8114 104.107 68.9777 104.19 69.1094C105.667 71.1543 106.665 72.6309 106.665 72.6586C106.748 72.7903 106.88 72.8734 107.011 72.9012L111.635 73.8162C113.167 78.1972 114.082 84.1654 113.569 90.6192C113.056 97.2044 110.664 108.663 100.717 117.536C98.596 117.321 96.2807 117.078 93.8338 116.78C86.1464 115.893 77.1903 114.68 69.4743 113.176C70.015 112.462 70.4448 111.817 70.6597 111.228L70.6615 111.228ZM101.232 118.541L101.26 118.513C111.609 109.37 114.111 97.5168 114.652 90.7095C115.165 84.0411 114.195 77.8301 112.552 73.2897C112.552 73.2065 112.496 73.1302 112.469 73.0471C111.713 71.0299 110.853 69.3663 109.918 68.1255C110.431 68.2364 111.048 68.3404 111.72 68.4513C115.297 69.0959 121.265 70.1981 126.263 71.1685C129.438 78.6966 136.349 109.966 112.794 125.965L97.0936 121.744C98.5978 120.718 99.9635 119.643 101.232 118.541Z" fill="url(#paint0_linear_268_1849)"/>
<path d="M76.2484 81.1445C69.8502 77.2695 67.0013 70.1712 65.7119 64.9308C65.6287 64.6327 65.3376 64.4455 65.0395 64.5287C64.7414 64.6119 64.5542 64.9031 64.6374 65.2011C65.9545 70.6565 68.9422 78.0252 75.6591 82.1149C75.7423 82.1703 75.8463 82.1981 75.9572 82.1981C76.1443 82.1981 76.3315 82.0872 76.4424 81.9277C76.6018 81.6504 76.5187 81.3039 76.2484 81.1445Z" fill="black"/>
<path d="M91.2559 46.0276C90.7429 46.3742 101.605 48.3637 106.229 46.8595C112.682 44.7591 110.534 36.1844 103.539 37.4252C98.9435 38.257 90.6875 45.8127 91.2559 46.0276Z" fill="#41337A"/>
<path d="M83.029 32.4202C83.1399 32.9331 87.8675 25.2942 88.1101 21.343C88.4359 15.8599 81.31 14.9448 80.1799 20.5874C79.4244 24.303 82.6753 32.7737 83.029 32.4202Z" fill="#41337A"/>
<path d="M89.7528 36.7804C89.3785 37.7231 105.592 30.8952 110.487 24.8436C117.259 16.456 106.91 6.85484 98.6819 14.5983C93.2473 19.7071 88.7823 36.9401 89.7528 36.7804Z" fill="#41337A"/>
<path d="M23.9537 57.8605C28.2308 57.8605 32.4523 56.6751 36.2163 54.3946C36.9164 53.9648 37.6166 53.4796 38.289 52.9666C44.1534 54.2005 50.5793 55.5175 50.6556 55.5175C50.8705 55.573 51.1131 55.4621 51.2448 55.2749C51.3765 55.0877 51.3557 54.8451 51.2171 54.658C51.1894 54.6025 47.7233 49.8473 44.6595 45.5149C45.2002 44.5167 45.6577 43.5254 46.032 42.5065C48.583 35.6785 47.862 28.1783 44.0703 21.9392C37.2978 10.8344 22.7205 7.31291 11.6152 14.0854C0.51035 20.8578 -3.0111 35.4352 3.76135 46.5404C7.04022 51.9195 12.2321 55.7113 18.36 57.1878C20.1899 57.6453 22.0753 57.8605 23.9537 57.8605ZM4.70321 45.9446C-1.75035 35.3526 1.58388 21.4751 12.1757 15.021C15.8358 12.789 19.8632 11.7422 23.8421 11.7422C31.4255 11.7422 38.8427 15.5894 43.0926 22.5212C46.7249 28.462 47.3973 35.5879 44.9781 42.1249C44.576 43.1993 44.0908 44.2737 43.5016 45.2997C43.3906 45.4869 43.4184 45.7295 43.5293 45.889C45.7337 49.0083 48.2083 52.4257 49.47 54.1726C47.2103 53.7151 42.559 52.7447 38.2611 51.8573C38.1017 51.8296 37.9353 51.8573 37.8036 51.9683C37.1035 52.5298 36.3757 53.0427 35.6269 53.4725C30.4905 56.5918 24.4388 57.5623 18.6092 56.1343C12.7725 54.6856 7.82255 51.0811 4.70321 45.9446Z" fill="#16C87D"/>
<path d="M37.7492 26.9369C38.2899 26.3962 38.2899 25.5089 37.7492 24.9751C37.2085 24.4344 36.3212 24.4344 35.7874 24.9751L18.5825 42.18L14.146 37.7436C13.6054 37.2029 12.7181 37.2029 12.1843 37.7436C11.6436 38.2843 11.6436 39.1716 12.1843 39.7054L17.5912 45.1123C17.8615 45.3827 18.2081 45.5144 18.5894 45.5144C18.9637 45.5144 19.3172 45.3827 19.5876 45.1123L37.7492 26.9369Z" fill="#16C87D"/>
<path d="M16.3994 68.6942C16.3994 68.6942 14.7357 72.5691 13.7375 73.5327C12.767 74.5032 8.89899 76.1945 8.89899 76.1945C8.89899 76.1945 12.7739 77.8582 13.7375 78.8564C14.708 79.8269 16.3994 83.6949 16.3994 83.6949C16.3994 83.6949 18.063 79.82 19.0612 78.8564C20.0594 77.8859 23.8997 76.1945 23.8997 76.1945C23.8997 76.1945 20.0248 74.5309 19.0612 73.5327C18.0977 72.5345 16.3994 68.6942 16.3994 68.6942Z" fill="#41337A"/>
<path d="M79.2634 132.981C78.8059 131.983 78.7019 128.628 78.7019 128.628C78.7019 128.628 76.3382 131.02 75.34 131.477C74.3418 131.935 70.9868 132.039 70.9868 132.039C70.9868 132.039 73.3784 134.402 73.8359 135.401C74.2934 136.399 74.3973 139.754 74.3973 139.754C74.3973 139.754 76.7611 137.362 77.7593 136.905C78.7575 136.447 82.1124 136.343 82.1124 136.343C82.1124 136.343 79.6932 134 79.2634 132.981Z" fill="#41337A"/>
<path d="M166.62 60.9517C166.62 60.9517 164.173 63.2393 163.126 63.6413C162.107 64.0433 158.745 64.0156 158.745 64.0156C158.745 64.0156 161.033 66.4625 161.435 67.5093C161.837 68.5283 161.809 71.8904 161.809 71.8904C161.809 71.8904 164.256 69.6028 165.303 69.2009C166.322 68.7988 169.684 68.8265 169.684 68.8265C169.684 68.8265 167.396 66.3796 166.994 65.3328C166.592 64.3138 166.62 60.9517 166.62 60.9517Z" fill="#41337A"/>
<path d="M65.1236 12.3943C66.6556 12.9835 70.392 16.4286 70.392 16.4286C70.392 16.4286 70.3365 11.3751 70.9327 9.84332C71.5219 8.31137 74.967 4.57499 74.967 4.57499C74.967 4.57499 69.9135 4.63044 68.3817 4.0343C66.8498 3.44509 63.1134 0 63.1134 0C63.1134 0 63.1688 5.05343 62.5727 6.58524C61.9835 8.11718 58.5384 11.8536 58.5384 11.8536C58.5315 11.8536 63.564 11.7981 65.1236 12.3943Z" fill="#41337A"/>
<defs>
<linearGradient id="paint0_linear_268_1849" x1="58.9458" y1="10.1605" x2="112.23" y2="158.124" gradientUnits="userSpaceOnUse">
<stop stop-color="#090321"/>
<stop offset="1" stop-color="#41337A"/>
</linearGradient>
</defs>
</svg>
