<svg width="15" height="15" viewBox="0 0 15 15" fill="none" xmlns="http://www.w3.org/2000/svg">
<g clip-path="url(#clip0_141_624)">
<path d="M7 2.625C5.83804 2.625 4.70217 2.96956 3.73603 3.61512C2.76989 4.26067 2.01688 5.17822 1.57221 6.25173C1.12755 7.32525 1.0112 8.50652 1.23789 9.64616C1.46458 10.7858 2.02412 11.8326 2.84575 12.6543C3.66738 13.4759 4.71421 14.0354 5.85385 14.2621C6.99349 14.4888 8.17475 14.3725 9.24827 13.9278C10.3218 13.4831 11.2393 12.7301 11.8849 11.764C12.5304 10.7978 12.875 9.66197 12.875 8.5C12.8732 6.94241 12.2536 5.44914 11.1522 4.34776C10.0509 3.24638 8.55759 2.62682 7 2.625ZM7 13.625C5.98637 13.625 4.99551 13.3244 4.1527 12.7613C3.3099 12.1981 2.65302 11.3977 2.26512 10.4613C1.87722 9.52478 1.77573 8.49431 1.97348 7.50016C2.17123 6.50601 2.65934 5.59282 3.37608 4.87608C4.09282 4.15933 5.00601 3.67122 6.00016 3.47348C6.99432 3.27573 8.02478 3.37722 8.96126 3.76512C9.89773 4.15302 10.6981 4.8099 11.2613 5.6527C11.8244 6.4955 12.125 7.48637 12.125 8.5C12.1233 9.85873 11.5829 11.1613 10.6221 12.1221C9.66133 13.0829 8.35873 13.6233 7 13.625ZM9.765 5.735C9.83523 5.80531 9.87467 5.90062 9.87467 6C9.87467 6.09938 9.83523 6.19469 9.765 6.265L7.265 8.765C7.23067 8.80184 7.18927 8.83139 7.14327 8.85189C7.09727 8.87239 7.04762 8.88341 6.99726 8.8843C6.94691 8.88518 6.8969 8.87592 6.8502 8.85706C6.80351 8.8382 6.76109 8.81013 6.72548 8.77452C6.68987 8.73891 6.6618 8.69649 6.64294 8.6498C6.62408 8.6031 6.61482 8.55309 6.61571 8.50274C6.6166 8.45239 6.62762 8.40273 6.64811 8.35673C6.66861 8.31073 6.69816 8.26933 6.735 8.235L9.235 5.735C9.30532 5.66477 9.40063 5.62533 9.5 5.62533C9.59938 5.62533 9.69469 5.66477 9.765 5.735ZM5.125 1C5.125 0.900544 5.16451 0.805161 5.23484 0.734835C5.30516 0.664509 5.40055 0.625 5.5 0.625H8.5C8.59946 0.625 8.69484 0.664509 8.76517 0.734835C8.83549 0.805161 8.875 0.900544 8.875 1C8.875 1.09946 8.83549 1.19484 8.76517 1.26517C8.69484 1.33549 8.59946 1.375 8.5 1.375H5.5C5.40055 1.375 5.30516 1.33549 5.23484 1.26517C5.16451 1.19484 5.125 1.09946 5.125 1Z" fill="#888888"/>
</g>
<defs>
<clipPath id="clip0_141_624">
<rect width="15" height="15" fill="white"/>
</clipPath>
</defs>
</svg>
