<svg width="24" height="24" viewBox="0 0 24 24" fill="none" xmlns="http://www.w3.org/2000/svg">
<path d="M20.964 3.99998H16.972M20.964 3.99998C20.964 4.55998 19.473 5.60698 18.968 5.99998M20.964 3.99998C20.964 3.43998 19.473 2.39298 18.968 1.99998M2.99899 3.99998H6.99099M2.99899 3.99998C2.99899 3.43998 4.49099 2.39298 4.99599 1.99998M2.99899 3.99998C2.99899 4.55998 4.49099 5.60698 4.99599 5.99998M9.81499 22V21.06C9.81514 20.4118 9.60534 19.781 9.21699 19.262L5.39399 14.153C5.07599 13.729 4.83999 13.214 4.98499 12.704C5.34499 11.445 6.76799 10.326 8.35899 12.297L9.95899 14.005V3.59398C10.057 1.76398 13.132 1.18698 13.45 3.59398V9.52698C14.933 9.33698 21.916 10.378 20.9 14.792L20.756 15.428C20.549 16.346 19.94 17.98 19.269 18.936C18.57 19.931 18.897 21.536 18.817 22.002" stroke="white" stroke-width="1.5" stroke-linecap="round" stroke-linejoin="round"/>
</svg>
