<svg width="16" height="20" viewBox="0 0 16 20" fill="none" xmlns="http://www.w3.org/2000/svg">
<path fill-rule="evenodd" clip-rule="evenodd" d="M2.81818 0.000773157C1.26174 0.000773157 0.333328 0.929187 0.333328 2.48562V17.5159C0.333328 19.0724 1.26174 20.0008 2.81818 20.0008H13.4242C14.9807 20.0008 15.9091 19.0724 15.9091 17.5159V7.02142C15.9091 6.27399 16.0285 5.86208 15.5 5.33357L10.3333 0.500239C9.80482 -0.0282735 9.63585 0.000773157 8.88847 0.000773157H2.81818ZM1.25252 2.48562C1.25252 1.50077 2.33977 0.879561 2.85858 0.879561H8.41414V6.2432C8.41414 7.28082 8.62901 7.16239 9.66666 7.16239H14.9899V17.5159C14.9341 18.5008 13.9027 19.122 13.3838 19.122H2.85858C2.33977 19.122 1.16666 18.5008 1.25252 17.5159V2.48562ZM14.9341 6.2432L9.33333 0.935334V6.2432H14.9341Z" fill="black"/>
</svg>
