<svg width="29" height="30" viewBox="0 0 29 30" fill="none" xmlns="http://www.w3.org/2000/svg">
<path d="M1.16669 15.272C1.16669 12.22 1.16669 10.6946 1.86002 9.43063C2.55069 8.16529 3.81602 7.38129 6.34535 5.81063L9.01202 4.15596C11.6854 2.49596 13.0227 1.66663 14.5 1.66663C15.9774 1.66663 17.3134 2.49596 19.988 4.15596L22.6547 5.81063C25.184 7.38129 26.4494 8.16529 27.1414 9.43063C27.8334 10.6946 27.8334 12.22 27.8334 15.2706V17.3C27.8334 22.5 27.8334 25.1013 26.2707 26.7173C24.7094 28.3333 22.1947 28.3333 17.1667 28.3333H11.8334C6.80535 28.3333 4.29069 28.3333 2.72935 26.7173C1.16669 25.1013 1.16669 22.5013 1.16669 17.3V15.272Z" stroke="#4B4953" stroke-width="1.5"/>
<path d="M14.5 19V23" stroke="#4B4953" stroke-width="1.5" stroke-linecap="round"/>
</svg>
