<svg width="24" height="24" viewBox="0 0 24 24" fill="none" xmlns="http://www.w3.org/2000/svg">
<path d="M19.633 7.10998L13.159 3.08998C12.8049 2.8686 12.3956 2.75122 11.978 2.75122C11.5604 2.75122 11.1511 2.8686 10.797 3.08998L4.324 7.13298C3.95577 7.36489 3.66351 7.69957 3.48331 8.09568C3.30311 8.4918 3.24286 8.93201 3.31 9.36198L4.98 19.389C5.06789 19.9141 5.3409 20.3903 5.74959 20.7315C6.15829 21.0727 6.67566 21.2563 7.208 21.249H16.79C17.3225 21.2563 17.84 21.0728 18.2488 20.7316C18.6577 20.3904 18.9309 19.9142 19.019 19.389L20.689 9.36198C20.7564 8.92411 20.6918 8.47606 20.5033 8.0751C20.3149 7.67415 20.0112 7.33847 19.631 7.11098" stroke="#FBFBFB" stroke-width="1.5" stroke-linecap="round" stroke-linejoin="round"/>
</svg>
