<svg width="33" height="32" viewBox="0 0 33 32" fill="none" xmlns="http://www.w3.org/2000/svg">
<path d="M29.5467 13.9201L28.24 19.4934C27.12 24.3067 24.9067 26.2534 20.7467 25.8534C20.08 25.8001 19.36 25.6801 18.5867 25.4934L16.3467 24.9601C10.7867 23.6401 9.0667 20.8934 10.3734 15.3201L11.68 9.73339C11.9467 8.60005 12.2667 7.61338 12.6667 6.80005C14.2267 3.57338 16.88 2.70672 21.3334 3.76005L23.56 4.28005C29.1467 5.58672 30.8534 8.34672 29.5467 13.9201Z" stroke="#4B4953" stroke-width="1.5" stroke-linecap="round" stroke-linejoin="round"/>
<path d="M20.7467 25.8534C19.92 26.4134 18.88 26.88 17.6134 27.2934L15.5067 27.9867C10.2134 29.6934 7.42671 28.2667 5.70671 22.9734L4.00005 17.7067C2.29338 12.4134 3.70671 9.61338 9.00005 7.90672L11.1067 7.21338C11.6534 7.04005 12.1734 6.89338 12.6667 6.80005C12.2667 7.61338 11.9467 8.60005 11.68 9.73338L10.3734 15.32C9.06671 20.8934 10.7867 23.64 16.3467 24.96L18.5867 25.4934C19.36 25.6801 20.08 25.8 20.7467 25.8534Z" stroke="#4B4953" stroke-width="1.5" stroke-linecap="round" stroke-linejoin="round"/>
<path d="M17.52 11.3733L23.9867 13.0133" stroke="#4B4953" stroke-width="1.5" stroke-linecap="round" stroke-linejoin="round"/>
<path d="M16.2134 16.5333L20.08 17.52" stroke="#4B4953" stroke-width="1.5" stroke-linecap="round" stroke-linejoin="round"/>
</svg>
