<svg width="24" height="24" viewBox="0 0 24 24" fill="none" xmlns="http://www.w3.org/2000/svg">
<path d="M12 23.9987C9.41657 23.198 7.27071 21.565 5.56243 19.0996C3.85414 16.6342 3 13.8562 3 10.7655V3.50889L12 0L21 3.50889V10.7655C21 13.8553 20.1459 16.6329 18.4376 19.0983C16.7293 21.5637 14.5834 23.1962 12 23.9987ZM12 22.575C14.0786 21.9041 15.8143 20.5792 17.2071 18.6005C18.6 16.6217 19.4143 14.4126 19.65 11.9732H12V1.43173L4.28571 4.42536V11.3438C4.28571 11.5174 4.30714 11.7272 4.35 11.9732H12V22.575Z" fill="black"/>
</svg>
