<svg width="33" height="32" viewBox="0 0 33 32" fill="none" xmlns="http://www.w3.org/2000/svg">
<path d="M27.1334 12.2933C24.7201 12.2933 23.7334 10.5867 24.9334 8.49333C25.6267 7.28 25.2134 5.73333 24.0001 5.04L21.6934 3.72C20.6401 3.09333 19.2801 3.46666 18.6534 4.52L18.5067 4.77333C17.3067 6.86666 15.3334 6.86666 14.1201 4.77333L13.9734 4.52C13.3734 3.46666 12.0134 3.09333 10.9601 3.72L8.65339 5.04C7.44006 5.73333 7.02673 7.29333 7.72006 8.50666C8.93339 10.5867 7.94673 12.2933 5.53339 12.2933C4.14673 12.2933 3.00006 13.4267 3.00006 14.8267V17.1733C3.00006 18.56 4.13339 19.7067 5.53339 19.7067C7.94673 19.7067 8.93339 21.4133 7.72006 23.5067C7.02673 24.72 7.44006 26.2667 8.65339 26.96L10.9601 28.28C12.0134 28.9067 13.3734 28.5333 14.0001 27.48L14.1467 27.2267C15.3467 25.1333 17.3201 25.1333 18.5334 27.2267L18.6801 27.48C19.3067 28.5333 20.6667 28.9067 21.7201 28.28L24.0267 26.96C25.2401 26.2667 25.6534 24.7067 24.9601 23.5067C23.7467 21.4133 24.7334 19.7067 27.1467 19.7067C28.5334 19.7067 29.6801 18.5733 29.6801 17.1733V14.8267C29.6667 13.44 28.5334 12.2933 27.1334 12.2933ZM16.3334 20.3333C13.9467 20.3333 12.0001 18.3867 12.0001 16C12.0001 13.6133 13.9467 11.6667 16.3334 11.6667C18.7201 11.6667 20.6667 13.6133 20.6667 16C20.6667 18.3867 18.7201 20.3333 16.3334 20.3333Z" fill="#41337A"/>
</svg>
