<svg width="22" height="21" viewBox="0 0 22 21" fill="none" xmlns="http://www.w3.org/2000/svg">
<path d="M10.5516 1.90832C10.735 1.53673 11.2649 1.53673 11.4483 1.90831L13.9738 7.02454C14.0465 7.17197 14.1871 7.2742 14.3498 7.29798L19.9981 8.12356C20.4081 8.18348 20.5714 8.6874 20.2746 8.97648L16.1884 12.9565C16.0704 13.0714 16.0166 13.2369 16.0444 13.3992L17.0087 19.0213C17.0788 19.4298 16.65 19.7413 16.2832 19.5484L11.2327 16.8924C11.087 16.8158 10.913 16.8158 10.7673 16.8924L5.7168 19.5484C5.34999 19.7413 4.92121 19.4298 4.99127 19.0213L5.95553 13.3992C5.98336 13.2369 5.92953 13.0714 5.81159 12.9565L1.72532 8.97648C1.42853 8.6874 1.59192 8.18348 2.00188 8.12356L7.65017 7.29798C7.81285 7.2742 7.95344 7.17197 8.02621 7.02454L10.5516 1.90832Z" stroke="black" stroke-width="1.5" stroke-linecap="round" stroke-linejoin="round"/>
</svg>
