<svg width="24" height="24" viewBox="0 0 24 24" fill="none" xmlns="http://www.w3.org/2000/svg">
<path fill-rule="evenodd" clip-rule="evenodd" d="M6.72478 6.54C5.89531 7.35726 5.26124 8.3514 4.86997 9.44814C4.47869 10.5449 4.34031 11.7159 4.46518 12.8736C4.4768 13.0291 4.42742 13.183 4.3275 13.3028C4.22758 13.4225 4.08496 13.4986 3.92988 13.515C3.7748 13.5314 3.61943 13.4867 3.49669 13.3905C3.37396 13.2943 3.29351 13.1541 3.27238 12.9996C3.12836 11.6624 3.28829 10.31 3.74023 9.04332C4.19218 7.77662 4.92446 6.6284 5.88238 5.6844C9.40678 2.208 15.0924 2.2644 18.5808 5.802C22.0692 9.3384 22.0464 15.024 18.5208 18.5004C16.8889 20.1126 14.6981 21.0333 12.4044 21.0708C11.5372 21.0863 10.6723 20.9767 9.83638 20.7456C9.68298 20.7033 9.55268 20.6017 9.47414 20.4633C9.3956 20.3249 9.37525 20.161 9.41758 20.0076C9.45991 19.8542 9.56144 19.7239 9.69984 19.6454C9.83825 19.5668 10.0022 19.5465 10.1556 19.5888C10.8806 19.7893 11.6307 19.8843 12.3828 19.8708C14.3687 19.8391 16.2657 19.0421 17.6784 17.646C20.7276 14.6388 20.7528 9.714 17.7264 6.6444C14.7 3.5748 9.77398 3.5328 6.72478 6.54Z" fill="#FBFBFB"/>
<path fill-rule="evenodd" clip-rule="evenodd" d="M4.31279 13.6356C4.26031 13.6944 4.19677 13.7423 4.1258 13.7765C4.05482 13.8107 3.9778 13.8306 3.89913 13.8351C3.82046 13.8395 3.74168 13.8285 3.66729 13.8025C3.5929 13.7765 3.52436 13.7361 3.46558 13.6836L1.40159 11.8476C1.33814 11.7967 1.28571 11.7334 1.24749 11.6615C1.20928 11.5897 1.18607 11.5109 1.17928 11.4298C1.17249 11.3487 1.18226 11.2671 1.208 11.1899C1.23374 11.1127 1.27491 11.0416 1.329 10.9808C1.3831 10.92 1.44899 10.8709 1.52267 10.8364C1.59635 10.8019 1.67628 10.7827 1.7576 10.78C1.83892 10.7774 1.91993 10.7913 1.99571 10.8209C2.07148 10.8506 2.14044 10.8953 2.19839 10.9524L4.26238 12.7884C4.32134 12.8407 4.3694 12.9041 4.40384 12.975C4.43828 13.0459 4.45842 13.1229 4.4631 13.2016C4.46778 13.2803 4.45691 13.3591 4.43112 13.4336C4.40533 13.508 4.36512 13.5767 4.31279 13.6356Z" fill="#FBFBFB"/>
<path fill-rule="evenodd" clip-rule="evenodd" d="M3.38398 13.56C3.43126 13.623 3.49048 13.6761 3.55828 13.7163C3.62608 13.7564 3.70113 13.7828 3.77913 13.794C3.85713 13.8051 3.93656 13.8008 4.01289 13.7812C4.08922 13.7617 4.16094 13.7273 4.22398 13.68L6.62398 11.88C6.75128 11.7845 6.83544 11.6424 6.85795 11.4848C6.88045 11.3273 6.83946 11.1673 6.74398 11.04C6.6485 10.9127 6.50636 10.8285 6.34883 10.806C6.1913 10.7835 6.03128 10.8245 5.90398 10.92L3.50398 12.72C3.37668 12.8155 3.29251 12.9576 3.27001 13.1151C3.24751 13.2727 3.2885 13.4327 3.38398 13.56ZM12 7.79999C12.1591 7.79999 12.3117 7.8632 12.4242 7.97572C12.5368 8.08825 12.6 8.24086 12.6 8.39999V12.6C12.6 12.7591 12.5368 12.9117 12.4242 13.0243C12.3117 13.1368 12.1591 13.2 12 13.2C11.8408 13.2 11.6882 13.1368 11.5757 13.0243C11.4632 12.9117 11.4 12.7591 11.4 12.6V8.39999C11.4 8.24086 11.4632 8.08825 11.5757 7.97572C11.6882 7.8632 11.8408 7.79999 12 7.79999Z" fill="#FBFBFB"/>
<path fill-rule="evenodd" clip-rule="evenodd" d="M16.2 12.6C16.2 12.7591 16.1368 12.9117 16.0243 13.0243C15.9117 13.1368 15.7591 13.2 15.6 13.2H12C11.8409 13.2 11.6883 13.1368 11.5757 13.0243C11.4632 12.9117 11.4 12.7591 11.4 12.6C11.4 12.4409 11.4632 12.2883 11.5757 12.1757C11.6883 12.0632 11.8409 12 12 12H15.6C15.7591 12 15.9117 12.0632 16.0243 12.1757C16.1368 12.2883 16.2 12.4409 16.2 12.6Z" fill="#FBFBFB"/>
</svg>
